<svg xmlns="http://www.w3.org/2000/svg" viewBox="0 0 580 200" width="580" height="200">
<text x="30" y="148" font-family="'Arial Black', 'Impact', sans-serif" font-size="100" font-weight="900" fill="#ffffff" font-style="italic" letter-spacing="-2" transform="skewX(-8)">RACE</text>
<text x="310" y="148" font-family="'Arial Black', 'Impact', sans-serif" font-size="100" font-weight="900" fill="#d4738a" font-style="italic" letter-spacing="-2" transform="skewX(-8)">TIK</text>
<path d="M30,165 Q150,155 280,162 Q400,170 540,148" fill="none" stroke="#d4738a" stroke-width="4" stroke-linecap="round"/>
<path d="M60,172 Q180,163 300,168 Q420,175 530,158" fill="none" stroke="#d4738a" stroke-width="2" stroke-linecap="round" opacity="0.4"/>
<g>
  <circle cx="460" cy="55" r="30" fill="none" stroke="#5dd882" stroke-width="3.5"/>
  <circle cx="460" cy="55" r="25" fill="none" stroke="#5dd882" stroke-width="1" opacity="0.4"/>
  <rect x="455" y="20" width="10" height="8" rx="3" fill="#5dd882"/>
  <rect x="453" y="16" width="14" height="5" rx="2" fill="#5dd882"/>
  <circle cx="440" cy="30" r="3" fill="#5dd882"/>
  <circle cx="480" cy="30" r="3" fill="#5dd882"/>
  <line x1="437" y1="30" x2="434" y2="27" stroke="#5dd882" stroke-width="2.5" stroke-linecap="round"/>
  <line x1="483" y1="30" x2="486" y2="27" stroke="#5dd882" stroke-width="2.5" stroke-linecap="round"/>
  <line x1="460" y1="30" x2="460" y2="34" stroke="#5dd882" stroke-width="1.5" stroke-linecap="round"/>
  <line x1="460" y1="76" x2="460" y2="80" stroke="#5dd882" stroke-width="1.5" stroke-linecap="round"/>
  <line x1="434" y1="55" x2="430" y2="55" stroke="#5dd882" stroke-width="1.5" stroke-linecap="round"/>
  <line x1="486" y1="55" x2="490" y2="55" stroke="#5dd882" stroke-width="1.5" stroke-linecap="round"/>
  <line x1="460" y1="58" x2="460" y2="38" stroke="#5dd882" stroke-width="2.5" stroke-linecap="round"/>
  <circle cx="460" cy="58" r="2.5" fill="#5dd882"/>
</g>
<path d="M478,62 L488,76 L510,48" fill="none" stroke="#5dd882" stroke-width="7" stroke-linecap="round" stroke-linejoin="round"/>
</svg>
